# AST/ASF file generated using VICON BodyLanguage
# -----------------------------------------------
:version 1.10
:name VICON
:units
  mass 1.0
  length 0.45
  angle deg
:documentation
   .ast/.asf automatically generated from VICON data using
   VICON BodyBuilder and BodyLanguage model FoxedUp or BRILLIANT.MOD
:root
   order TX TY TZ RX RY RZ
   axis XYZ
   position 0 0 0  
   orientation 0 0 0 
:bonedata
  begin
     id 1 
     name lhipjoint
     direction 0.602128 -0.715006 0.355257 
     length 2.21237 
     axis 0 0 0  XYZ
  end
  begin
     id 2 
     name lfemur
     direction 0.34202 -0.939693 0  
     length 6.71649  
     axis 0 0 20  XYZ
    dof rx ry rz
    limits (-160.0 20.0)
           (-70.0 70.0)
           (-60.0 70.0)
  end
  begin
     id 3 
     name ltibia
     direction 0.34202 -0.939693 0   
     length 6.97123   
     axis 0 0 20   XYZ
    dof rx
    limits (-10.0 170.0)
  end
  begin
     id 4 
     name lfoot
     direction 0.0655697 -0.180151 0.981451   
     length 1.80924   
     axis -90 7.62852e-016 20   XYZ
    dof rx rz
    limits (-45.0 90.0)
           (-70.0 20.0)
  end
  begin
     id 5 
     name ltoes
     direction 1.53545e-011 -4.21827e-011 1   
     length 0.916331   
     axis -90 7.62852e-016 20   XYZ
    dof rx
    limits (-90.0 20.0)
  end
  begin
     id 6 
     name rhipjoint
     direction -0.625414 -0.698792 0.347201   
     length 2.2637  
     axis 0 0 0  XYZ 
  end
  begin
     id 7 
     name rfemur
     direction -0.34202 -0.939693 0   
     length 7.07595   
     axis 0 0 -20   XYZ
    dof rx ry rz
    limits (-160.0 20.0)
           (-70.0 70.0)
           (-70.0 60.0)
  end
  begin
     id 8 
     name rtibia
     direction -0.34202 -0.939693 0   
     length 7.22924   
     axis 0 0 -20   XYZ
    dof rx
    limits (-10.0 170.0)
 end
 begin
     id 9 
     name rfoot
     direction -0.0766747 -0.210662 0.974547   
     length 1.98482  
     axis -90 -7.62852e-016 -20   XYZ
    dof rx rz
    limits (-45.0 90.0)
           (-20.0 70.0)
  end
  begin
     id 10 
     name rtoes
     direction -1.53532e-011 -4.21867e-011 1   
     length 0.999842   
     axis -90 -7.62852e-016 -20   XYZ
    dof rx
    limits (-90.0 20.0)
  end
  begin
     id 11 
     name lowerback
     direction -0.0224668 0.997354 -0.0691422   
     length 2.09945   
     axis 0 0 0   XYZ
    dof rx ry rz
    limits (-20.0 45.0)
           (-30.0 30.0)
           (-30.0 30.0)
  end
  begin
     id 12 
     name upperback
     direction 0.0134698 0.998451 -0.0539888   
     length 2.09758   
     axis 0 0 0   XYZ
    dof rx ry rz
    limits (-20.0 45.0)
           (-30.0 30.0)
           (-30.0 30.0)
  end
  begin
     id 13 
     name thorax
     direction 0.0241905 0.99948 -0.0213333   
     length 2.10428   
     axis 0 0 0   XYZ
    dof rx ry rz
    limits (-20.0 45.0)
           (-30.0 30.0)
           (-30.0 30.0)
  end
  begin
     id 14 
     name lowerneck
     direction -0.00866847 0.995978 0.0891737   
     length 1.3959   
     axis 0 0 0   XYZ
    dof rx ry rz
    limits (-20.0 45.0)
           (-30.0 30.0)
           (-30.0 30.0)
  end
  begin
     id 15 
     name upperneck
     direction 0.0680679 0.992203 0.104404   
     length 1.39452   
     axis 0 0 0   XYZ
    dof rx ry rz
    limits (-20.0 45.0)
           (-30.0 30.0)
           (-30.0 30.0)
  end
  begin
     id 16
     name head
     direction 0.0242216 0.999358 0.0264054  
     length 1.40433  
     axis 0 0 0   XYZ
    dof rx ry rz
    limits (-20.0 45.0)
           (-30.0 30.0)
           (-30.0 30.0)
  end
  begin
     id 17 
     name lclavicle
     direction 0.929368 0.362991 -0.0671771  
     length 3.04887  
     axis 0 0 0   XYZ
    dof ry rz
    limits (-20.0 10.0)
           (0.0 20.0)
  end
  begin
     id 18 
     name lhumerus
     direction 1 -4.48967e-011 -7.13741e-028   
     length 4.77195   
     axis -180 -30 -90   XYZ
    dof rx ry rz
    limits (-60.0 90.0)
           (-90.0 90.0)
           (-90.0 90.0)
  end
  begin
     id 19
     name lradius
     direction 1 -4.48977e-011 3.60404e-027   
     length 2.98444   
     axis -180 -30 -90   XYZ
    dof rx
    limits (-10.0 170.0)
  end
  begin
     id 20
     name lwrist
     direction 1 -4.48997e-011 7.54877e-027   
     length 1.49222   
     axis -7.18178e-015 90 90   XYZ
    dof ry
    limits (-180.0 0.0)
 end
  begin
     id 21 
     name lhand
     direction 1 -4.489e-011 1.51105e-026   
     length 0.992285   
     axis -9.63605e-015 90 90   XYZ
    dof rx rz
    limits (-90.0 90.0)
           (-45.0 45.0)
  end
  begin
     id 22 
     name lfingers
     direction 1 -4.48998e-011 3.01948e-026   
     length 0.800006   
     axis -1.92718e-014 90 90   XYZ
    dof rx
    limits (0.0 90.0)
  end
  begin
     id 23
     name lthumb
     direction 0.707107 -6.34881e-011 0.707107   
     length 1.14865   
     axis -90 45 -3.53137e-014   XYZ
    dof rx rz
    limits (-45.0 45.0)
           (-45.0 45.0)
  end
  begin
     id 24 
     name rclavicle
     direction -0.945672 0.324529 0.0196374   
     length 3.4236  
     axis 0 0 0   XYZ 
    dof ry rz
    limits (-10.0 20.0)
           (-20.0 0.0)
  end
  begin
     id 25 
     name rhumerus
     direction -1 -4.4896e-011 1.02757e-029  
     length 4.62052   
     axis -180 30 90   XYZ
    dof rx ry rz
    limits (-90.0 60.0)
           (-90.0 90.0)
           (-90.0 90.0)
  end
  begin
     id 26 
     name rradius
     direction -1 -4.48982e-011 3.85962e-027   
     length 2.95332   
     axis -180 30 90   XYZ
    dof rx
    limits (-10.0 170.0)
  end
  begin
     id 27 
     name rwrist
     direction -1 -4.48961e-011 7.55118e-027   
     length 1.47666   
     axis -7.18178e-015 -90 -90   XYZ
    dof ry
    limits (-180.0 0.0)
  end
  begin
     id 28
     name rhand
     direction -1 -4.48984e-011 1.50994e-026   
     length 0.990956   
     axis -9.63605e-015 -90 -90   XYZ
    dof rx rz
    limits (-90.0 90.0)
           (-45.0 45.0)
  end
  begin
     id 29
     name rfingers
     direction -1 -4.4892e-011 3.02158e-026   
     length 0.798934   
     axis -1.92718e-014 -90 -90   XYZ
    dof rx
    limits (0.0 90.0)
  end
  begin
     id 30
     name rthumb
     direction -0.707107 -6.34916e-011 0.707107   
     length 1.14711   
     axis -90 -45 3.53137e-014   XYZ
    dof rx rz
    limits (-45.0 45.0)
           (-45.0 45.0)
  end
:hierarchy
  begin
    root lhipjoint rhipjoint lowerback
    lhipjoint lfemur
    lfemur ltibia
    ltibia lfoot
    lfoot ltoes
    rhipjoint rfemur
    rfemur rtibia
    rtibia rfoot
    rfoot rtoes
    lowerback upperback
    upperback thorax
    thorax lowerneck lclavicle rclavicle
    lowerneck upperneck
    upperneck head
    lclavicle lhumerus
    lhumerus lradius
    lradius lwrist
    lwrist lhand lthumb
    lhand lfingers
    rclavicle rhumerus
    rhumerus rradius
    rradius rwrist
    rwrist rhand rthumb
    rhand rfingers
  end

#!OML:ASF H:\ManfredObstacles\Project 1\Capture day 1\Session 1\Male.ASF
:FULLY-SPECIFIED
:DEGREES
409
root -11.807 16.4891 -13.0747 -177.791 -70.9196 -173.651
lowerback -12.3627 -4.65793 -3.76845
upperback 1.23823 -5.97512 3.41686
thorax 9.04694 -3.19328 4.56767
lowerneck -4.85507 -1.69049 -10.308
upperneck 1.60791 -2.07888 12.4301
head 1.51469 -0.90615 5.39504
rclavicle 3.81667e-014 2.78299e-014
rhumerus -37.8548 -26.2946 -68.2773
rradius 24.1738
rwrist 34.9853
rhand 2.33459 -4.51699
rfingers 7.12502
rthumb 27.8245 -32.4768
lclavicle 3.81667e-014 2.78299e-014
lhumerus -23.5937 31.3876 84.6107
lradius 14.3343
lwrist -50.0761
lhand -8.70646 5.64163
lfingers 7.12502
lthumb 17.229 34.8979
rfemur -31.2155 -7.07541 20.4369
rtibia 26.6594
rfoot -3.26473 10.2597
rtoes 29.8412
lfemur 9.02642 -5.79625 -14.5996
ltibia 7.00815
lfoot -0.485414 -11.848
ltoes -10.3621
410
root -11.8997 16.5111 -13.198 -177.158 -71.1236 -174.263
lowerback -12.1415 -4.99749 -4.39034
upperback 1.30868 -6.3715 3.68401
thorax 9.15288 -3.43193 5.13105
lowerneck -5.63101 -1.62856 -10.6482
upperneck 1.59434 -1.90001 12.3788
head 1.62076 -0.795323 5.43971
rclavicle 2.20154e-014 2.18663e-014
rhumerus -36.2668 -24.7373 -69.1351
rradius 24.5933
rwrist 34.3841
rhand 1.78613 -4.42849
rfingers 7.12502
rthumb 27.3 -32.472
lclavicle 2.20154e-014 2.18663e-014
lhumerus -23.1819 31.3514 85.496
lradius 14.0046
lwrist -49.9724
lhand -8.49505 5.94869
lfingers 7.12502
lthumb 17.4324 35.187
rfemur -30.8024 -6.83821 20.3465
rtibia 26.8208
rfoot -3.91101 10.1361
rtoes 29.8118
lfemur 9.15292 -5.97404 -14.527
ltibia 7.3895
lfoot -0.064527 -11.384
ltoes -14.296
411
root -11.9823 16.5647 -13.2928 -175.01 -72.0956 -174.765
lowerback -13.3418 -5.23515 -4.30958
upperback 0.788771 -6.64646 3.56269
thorax 9.28085 -3.54199 4.82124
lowerneck -5.34963 -1.711 -9.5534
upperneck 0.99167 -2.06097 11.9637
head 1.40079 -0.894635 5.12049
rclavicle -1.41187e-013 1.19271e-014
rhumerus -35.6352 -24.1002 -69.9137
rradius 25.2284
rwrist 33.6729
rhand 1.2568 -4.42832
rfingers 7.12502
rthumb 26.7936 -32.5505
lclavicle -1.41187e-013 1.19271e-014
lhumerus -23.7424 35.1029 84.1693
lradius 13.402
lwrist -55.3856
lhand -8.3725 5.32098
lfingers 7.12502
lthumb 17.5504 34.5488
rfemur -32.2288 -7.19745 20.325
rtibia 26.977
rfoot -4.35539 9.75491
rtoes 29.8221
lfemur 7.28041 -6.7364 -14.307
ltibia 7.50008
lfoot 0.966166 -10.7222
ltoes -16.4158
412
root -12.0739 16.568 -13.4047 -176.167 -71.4899 -174.669
lowerback -12.4767 -3.98731 -3.73339
upperback 1.05016 -4.96855 2.36933
thorax 8.67666 -2.65377 3.63877
lowerneck -3.72177 -2.32601 -7.17845
upperneck -0.167443 -3.07984 12.1593
head 0.874002 -1.47872 4.76561
rclavicle -9.91439e-014 -1.63003e-014
rhumerus -37.0907 -26.1238 -70.362
rradius 26.4464
rwrist 32.5757
rhand 1.08248 -4.70277
rfingers 7.12502
rthumb 26.6268 -32.8504
lclavicle -9.91439e-014 -1.63003e-014
lhumerus -22.4765 22.0028 86.9895
lradius 13.7173
lwrist -46.6125
lhand -7.86847 6.03153
lfingers 7.12502
lthumb 18.0354 35.2153
rfemur -30.7578 -7.7665 20.9165
rtibia 27.2107
rfoot -4.54224 11.1441
rtoes 29.5126
lfemur 9.15075 -6.23913 -13.9939
ltibia 7.22262
lfoot 1.93851 -10.4812
ltoes -15.1805
413
root -12.1513 16.5801 -13.4815 -175.677 -71.5644 -174.904
lowerback -12.2283 -4.85114 -4.36836
upperback 1.18359 -6.15251 3.49463
thorax 9.00947 -3.31054 4.96085
lowerneck -5.74393 -1.86905 -10.3558
upperneck 0.395828 -2.19498 13.0439
head 1.33244 -0.94953 5.5877
rclavicle 2.34069e-014 -2.38542e-014
rhumerus -33.9903 -22.0426 -71.2916
rradius 26.7068
rwrist 30.9892
rhand 0.630678 -4.89328
rfingers 7.12502
rthumb 26.1943 -33.1058
lclavicle 2.34069e-014 -2.38542e-014
lhumerus -22.4952 31.328 86.3653
lradius 13.3832
lwrist -54.4537
lhand -7.80161 4.88517
lfingers 7.12502
lthumb 18.0997 34.063
rfemur -30.7399 -8.33931 21.2016
rtibia 27.2898
rfoot -4.85535 11.7131
rtoes 28.9014
lfemur 9.1066 -6.26004 -13.7922
ltibia 7.23944
lfoot 3.23604 -10.4418
ltoes -13.0543
414
root -12.2261 16.5898 -13.5688 -175.705 -71.4658 -174.709
lowerback -12.18 -4.75233 -4.22173
upperback 1.1927 -6.03422 3.40592
thorax 8.94874 -3.24151 4.81162
lowerneck -5.65383 -1.8046 -10.9135
upperneck -0.0857947 -2.07832 13.9261
head 1.18346 -0.895764 5.96565
rclavicle 9.50191e-014 1.19271e-014
rhumerus -33.4741 -20.9748 -72.1506
rradius 27.4234
rwrist 29.7739
rhand -0.0825085 -4.8905
rfingers 7.12502
rthumb 25.5113 -33.2026
lclavicle 9.50191e-014 1.19271e-014
lhumerus -22.1128 29.3041 87.1946
lradius 13.722
lwrist -53.6693
lhand -7.6626 4.90093
lfingers 7.12502
lthumb 18.2335 34.0663
rfemur -30.5377 -8.02025 21.4146
rtibia 27.3985
rfoot -5.34737 11.6773
rtoes 29.5425
lfemur 9.48926 -6.11571 -13.5073
ltibia 6.91368
lfoot 4.27539 -10.5298
ltoes -12.715
415
root -12.2937 16.6136 -13.634 -175.699 -71.4031 -174.163
lowerback -12.5289 -3.91553 -3.11758
upperback 0.924906 -4.95681 2.27221
thorax 8.50324 -2.61277 3.19185
lowerneck -2.98628 -1.93799 -7.14797
upperneck -2.38065 -2.45341 13.033
head 0.0613348 -1.25215 5.06503
rclavicle -6.42944e-016 3.42904e-015
rhumerus -34.7141 -22.5623 -73.1223
rradius 28.4891
rwrist 28.4942
rhand -0.192129 -5.12096
rfingers 7.12502
rthumb 25.4063 -33.448
lclavicle -6.42944e-016 3.42904e-015
lhumerus -22.1217 23.3814 87.3244
lradius 14.373
lwrist -51.361
lhand -7.444 4.98299
lfingers 7.12502
lthumb 18.4438 34.1286
rfemur -30.7322 -7.79922 21.7457
rtibia 27.3011
rfoot -5.4695 11.7128
rtoes 30.5929
lfemur 8.87443 -5.9384 -13.0659
ltibia 7.40651
lfoot 4.92827 -10.8198
ltoes -13.7802
416
root -12.3466 16.6411 -13.7024 -174.998 -71.4921 -174.022
lowerback -12.7065 -5.0138 -3.72658
upperback 0.913729 -6.45851 3.53928
thorax 8.95752 -3.42196 4.55436
lowerneck -4.02484 -1.20522 -8.80217
upperneck -2.92123 -1.28299 12.2495
head -0.0435399 -0.618679 5.11916
rclavicle 1.16289e-013 7.15625e-015
rhumerus -31.5205 -17.9024 -74.0357
rradius 28.4704
rwrist 26.8397
rhand -0.0497403 -5.38556
rfingers 7.12502
rthumb 25.5427 -33.6932
lclavicle 1.16289e-013 7.15625e-015
lhumerus -21.4142 23.6019 89.4107
lradius 15.4906
lwrist -48.5578
lhand -7.52343 5.21015
lfingers 7.12502
lthumb 18.3673 34.363
rfemur -31.2926 -7.22818 21.8435
rtibia 27.1669
rfoot -5.75689 11.223
rtoes 30.9266
lfemur 7.79533 -5.87283 -12.6958
ltibia 7.86189
lfoot 5.83619 -10.9175
ltoes -13.2065
417
root -12.3898 16.6601 -13.7692 -175.083 -71.6116 -173.34
lowerback -12.7821 -5.16109 -3.55222
upperback 0.910613 -6.73422 3.99317
thorax 9.07048 -3.56892 4.87826
lowerneck -5.36665 -1.18876 -10.8274
upperneck -2.46818 -1.10237 13.5393
head 0.316326 -0.463538 5.86395
rclavicle 6.29153e-014 -3.49861e-014
rhumerus -30.0918 -16.1794 -74.3603
rradius 28.7363
rwrist 26.0018
rhand -0.0831915 -5.39888
rfingers 7.12502
rthumb 25.5107 -33.7111
lclavicle 6.29153e-014 -3.49861e-014
lhumerus -20.8565 24.7598 90.3407
lradius 15.9488
lwrist -49.0002
lhand -7.84102 4.99448
lfingers 7.12502
lthumb 18.0618 34.1758
rfemur -31.5235 -6.70862 22.152
rtibia 26.9332
rfoot -6.12622 10.6518
rtoes 31.1831
lfemur 7.05617 -5.85354 -12.1276
ltibia 8.28137
lfoot 6.88472 -10.7562
ltoes -10.2589
418
root -12.4414 16.6725 -13.8216 -174.515 -71.5618 -173.77
lowerback -12.6631 -4.98009 -3.46759
upperback 0.96428 -6.50374 3.9546
thorax 9.01682 -3.45224 4.84857
lowerneck -5.2161 -1.40918 -11.1721
upperneck -3.10741 -1.34683 13.4848
head 0.138357 -0.596167 5.90332
rclavicle 1.29111e-013 -3.69739e-014
rhumerus -29.4744 -15.646 -74.5796
rradius 29.161
rwrist 25.5144
rhand 0.00557851 -5.36708
rfingers 7.12502
rthumb 25.5957 -33.6671
lclavicle 1.29111e-013 -3.69739e-014
lhumerus -20.5231 21.1588 91.8229
lradius 16.9351
lwrist -44.9386
lhand -8.19268 5.23729
lfingers 7.12502
lthumb 17.7234 34.4496
rfemur -31.3773 -6.6989 22.1445
rtibia 26.8111
rfoot -6.36563 10.6907
rtoes 32.0662
lfemur 7.08131 -5.76049 -11.9521
ltibia 8.20039
lfoot 7.99867 -10.5884
ltoes -7.79829
419
root -12.4916 16.6881 -13.8855 -174.258 -71.5729 -173.972
lowerback -12.5736 -4.83449 -3.40736
upperback 0.927397 -6.26887 3.51918
thorax 8.8342 -3.31331 4.40511
lowerneck -4.71406 -1.44209 -10.5332
upperneck -3.40124 -1.45764 13.811
head -0.0147396 -0.685842 5.89825
rclavicle -1.0625e-013 2.74323e-014
rhumerus -29.5762 -15.8435 -75.3836
rradius 29.6106
rwrist 25.7575
rhand -0.134756 -5.25132
rfingers 7.12502
rthumb 25.4613 -33.5706
lclavicle -1.0625e-013 2.74323e-014
lhumerus -20.7271 17.3686 92.0923
lradius 17.7687
lwrist -41.0811
lhand -8.45006 5.30003
lfingers 7.12502
lthumb 17.4758 34.5345
rfemur -31.0855 -6.37507 22.1156
rtibia 26.7153
rfoot -6.74847 10.4849
rtoes 32.6445
lfemur 7.4529 -5.73571 -11.8332
ltibia 7.70198
lfoot 8.79924 -10.6916
ltoes -9.36875
420
root -12.5395 16.6969 -13.9467 -173.278 -71.6284 -175.001
lowerback -12.7944 -3.44634 -2.68534
upperback 0.987486 -4.37125 2.05516
thorax 8.61724 -2.30337 2.82428
lowerneck -3.46737 -2.47099 -9.56008
upperneck -4.12792 -2.94766 15.1565
head -0.228174 -1.52308 6.14007
rclavicle -6.33844e-014 3.65267e-015
rhumerus -31.1484 -19.8674 -75.4966
rradius 30.3127
rwrist 26.3893
rhand -0.565388 -5.08838
rfingers 7.12502
rthumb 25.0487 -33.4658
lclavicle -6.33844e-014 3.65267e-015
lhumerus -21.0059 10.3303 92.4404
lradius 18.5786
lwrist -37.9462
lhand -8.11513 5.34871
lfingers 7.12502
lthumb 17.7981 34.5542
rfemur -30.801 -6.44443 21.9013
rtibia 26.6788
rfoot -6.98742 10.6243
rtoes 32.7936
lfemur 8.01661 -5.79318 -12.0467
ltibia 6.81405
lfoot 9.72854 -10.6666
ltoes -12.0744
421
root -12.5849 16.7112 -14.0018 -173.062 -71.7413 -175.095
lowerback -12.8815 -3.53287 -2.81613
upperback 1.08356 -4.4743 2.15788
thorax 8.7996 -2.36509 2.97902
lowerneck -4.14474 -2.38078 -8.96792
upperneck -3.40517 -2.86861 14.6583
head 0.0624886 -1.44469 5.86847
rclavicle 2.75876e-014 1.40143e-014
rhumerus -30.3868 -19.0887 -75.941
rradius 30.2642
rwrist 26.246
rhand -0.822355 -5.0313
rfingers 7.12502
rthumb 24.8025 -33.4429
lclavicle 2.75876e-014 1.40143e-014
lhumerus -20.4603 12.7636 92.3429
lradius 18.4219
lwrist -39.6736
lhand -8.0332 4.66012
lfingers 7.12502
lthumb 17.8769 33.8585
rfemur -30.6662 -6.71223 22.0758
rtibia 26.6004
rfoot -7.08453 10.8912
rtoes 33.0408
lfemur 8.63646 -5.8756 -11.8294
ltibia 5.53527
lfoot 11.1411 -10.1329
ltoes -11.1619
422
root -12.6286 16.729 -14.0486 -172.782 -71.8053 -175.25
lowerback -12.8556 -3.60004 -2.87964
upperback 1.08162 -4.55949 2.2097
thorax 8.79968 -2.4111 3.05341
lowerneck -3.67751 -2.07871 -8.17716
upperneck -3.99163 -2.46519 13.8894
head -0.25961 -1.27921 5.51251
rclavicle 3.16192e-014 2.45002e-014
rhumerus -29.9494 -18.4384 -76.3396
rradius 30.3186
rwrist 26.1961
rhand -0.765774 -5.07253
rfingers 7.12502
rthumb 24.8567 -33.4766
lclavicle 3.16192e-014 2.45002e-014
lhumerus -20.7654 8.62598 93.3844
lradius 19.7838
lwrist -34.9067
lhand -7.84508 5.19112
lfingers 7.12502
lthumb 18.0579 34.3728
rfemur -30.5822 -7.11038 22.2613
rtibia 26.5272
rfoot -7.1632 11.2794
rtoes 32.8769
lfemur 9.17122 -5.90594 -11.6829
ltibia 4.4738
lfoot 12.2671 -9.58676
ltoes -9.94328
